<svg width="33" height="32" viewBox="0 0 33 32" fill="none" xmlns="http://www.w3.org/2000/svg">
<path id="Vector" d="M29.3333 0C30.3058 0 31.2384 0.366154 31.9261 1.01791C32.6137 1.66967 33 2.55364 33 3.47537V27.803C33 28.7247 32.6137 29.6087 31.9261 30.2604C31.2384 30.9122 30.3058 31.2783 29.3333 31.2783H3.66667C2.69421 31.2783 1.76157 30.9122 1.07394 30.2604C0.386308 29.6087 0 28.7247 0 27.803V3.47537C0 2.55364 0.386308 1.66967 1.07394 1.01791C1.76157 0.366154 2.69421 0 3.66667 0H29.3333ZM28.4167 26.9341V17.7244C28.4167 16.222 27.787 14.7811 26.6661 13.7187C25.5453 12.6564 24.0251 12.0595 22.44 12.0595C20.8817 12.0595 19.0667 12.9631 18.1867 14.3185V12.3897H13.0717V26.9341H18.1867V18.3673C18.1867 17.0293 19.3233 15.9346 20.735 15.9346C21.4157 15.9346 22.0686 16.1909 22.5499 16.6471C23.0313 17.1033 23.3017 17.7221 23.3017 18.3673V26.9341H28.4167ZM7.11333 9.66153C7.9302 9.66153 8.71361 9.35396 9.29122 8.80648C9.86884 8.25901 10.1933 7.51647 10.1933 6.74222C10.1933 5.12617 8.81833 3.80553 7.11333 3.80553C6.2916 3.80553 5.50353 4.11493 4.92248 4.66567C4.34143 5.2164 4.015 5.96336 4.015 6.74222C4.015 8.35826 5.40833 9.66153 7.11333 9.66153ZM9.66167 26.9341V12.3897H4.58333V26.9341H9.66167Z" fill="#C89999"/>
</svg>
